<svg width="296.875" height="293.17743169201356" viewBox="0 0 296.875 293.17743169201356" class="css-1j8o68f"><defs id="SvgjsDefs1904"></defs><g id="SvgjsG1905" featurekey="rootContainer" transform="matrix(2.750257765986651,0,0,2.750257765986651,-0.1527967916916862,0)" fill="#ffffff"><g xmlns="http://www.w3.org/2000/svg"><path d="M19.8 15.3h.5l-.4-.2zm.5.1zm.8-.7c0 .1 0 .1.1.1l.4-.3c-.2-.1-.3-.1-.5.2zm.4-.2zm-4.1 2.3zm-.2.6l.3-.2c.1-.1.1-.2.1-.2h-.2l-.2.4c-.1-.1-.1 0 0 0zm2.2-2.9h-.1l-.2.2h.3zm-2.1 2.4l.6-.5c.1-.1.1-.2.1-.3h-.3l-1.2 1.1-.2.4.7-.6zm-1.1.8z"></path><path d="M9.7 25v-.2a1.7 1.7 0 0 1 .7-1.1l.9-.6.5-.6.7-.7.4-.4.4-.3a1.9 1.9 0 0 0 .8-.9l.4-.5a5.9 5.9 0 0 0 1-1.3l.2-.3.3-.2-.2-.3.4-.5c.8-.6 1.4-1.4 2.2-2l.3-.3a1.4 1.4 0 0 1 .5-.6l.8-.4h.4a1.4 1.4 0 0 0 .7-.6V13a3.5 3.5 0 0 1 1.3-1.4l.8-.5.2-.2.4-.4 1-.5h.2l-1.1.4-1.4 1c-.6.5-1.4.6-1.8 1.4h.3c-.7.2-1.4.5-1.7 1.2s-.8.6-1.2.9a.4.4 0 0 0-.3.4c-.8-.1-1.1.5-1.5.9v.8a3.9 3.9 0 0 0-1.6 1.4c-1.6.1-1.6 2.1-3 2.5h-.1a.2.2 0 0 0 0 .2c-.3 0-.5.2-.4.5l-.2.5c-.7.4-.6 1.1-1 1.7-.8.5-1.1 1.5-1.7 2.2l.3.5.2-.2a11.6 11.6 0 0 1 .9-1.3zM53.9 3.3l.6.2h.2a2.2 2.2 0 0 0 1.4.2 4.1 4.1 0 0 1 1.9.1h1.2a1.4 1.4 0 0 1 1.2.3.1.1 0 0 1 0 .1H60a.1.1 0 0 0 0 .1h.7a1.8 1.8 0 0 1 1.3 0c.2 0 .1.1.2.2l.5.2h-.2c-.2-.4-.5-.4-.8-.4a9.7 9.7 0 0 0-4.3-.9h-.8A9.8 9.8 0 0 0 53 3h.2zm7.3 3.1zM50.3 4.7zm10.9 1.7h.2-.2zM19 14.7zm32.1-10zm17.6 2.2a.9.9 0 0 0 1 .2h.6a3.1 3.1 0 0 0-1.8-.7l-.7-.2.5.3zm-3.4-1.3c0 .1.1.2.2.3h.2l.5-.3a4.2 4.2 0 0 0-1.7-.6l.7.4zm7.4 2.7l.8.5c-.2-.3-.4-.5-.8-.5z"></path><path d="M99 76.1l.6-1.6.6-1.5c.2-.5.6-1.8.8-2.6a1.7 1.7 0 0 1 .3-.7h.1v-1.1c.5-.1.4-.6.5-.9l.8-4.7a12.7 12.7 0 0 0 0-6.2 1.9 1.9 0 0 0-.5-1.6v-4.3c-.3-.9.3-1.9-.4-2.7L101 45a.4.4 0 0 0 0-.2l-.2-.6a.5.5 0 0 1 0-.4h.1c.3 0 .3-.5.3-.9a3 3 0 0 0-.4-1.1l-.3-.4a1.1 1.1 0 0 1-.2-.7 6.7 6.7 0 0 0-.2-2v-.6c-.2-.7-.4-1.5-.6-2.2l-.2-.5a2.5 2.5 0 0 1-.4-1.1 2.5 2.5 0 0 0-.3-.8l-.6-1a.8.8 0 0 0-.6-.2h-.1V32h-.2v-.8H97V31a.4.4 0 0 0 0-.1v-.2c.1-.2.1-.3-.1-.5a1.8 1.8 0 0 1-.4-.6l-.2-.6a2.9 2.9 0 0 0-.7-1.2 2.2 2.2 0 0 1-.5-.7l-.7-1.6a4.3 4.3 0 0 0-.6-1l-.6-.8a2.4 2.4 0 0 1-.4-.8l-.2-.3a.6.6 0 0 1-.1-.5.5.5 0 0 0-.2-.4l-.4-.3v.2c.1.2 0 .3-.1.3h-.2l.3 1 .3.5.7.9h-.1l-.2-.2-.2-.2a1.3 1.3 0 0 0-1.2-1.1v-.7c-.3-1.2-1.6-1.3-2.2-2.1a1.5 1.5 0 0 0-1.1-.9l-.8-.9a11.3 11.3 0 0 0-3.1-3l-.8-.6-.4-.3c-.7-.7-1-1.8-2.2-1.8l-.8-.5-.9-.7a2.2 2.2 0 0 0-1.8-1.3 5.1 5.1 0 0 0-2.3-1.2l.2.2.5.4 1.3.7a8.5 8.5 0 0 1 2.1 1.6 6.8 6.8 0 0 0 1.5 1.1l.6.5c.1.1.2.2.1.3H81l-.9-.3a5.6 5.6 0 0 1-2-.8l-1.2-.6-1.3-.7h-.2c-.3-.1-.4-.4-.8-.5l-.8-.2-2.5-.5a2.6 2.6 0 0 1-.9-.7 1.7 1.7 0 0 1-.9-.3l-1-.4a18.1 18.1 0 0 1-2.8-.8l-.6-.2-1-.3h-.5l-.2-.3v-.1h-1.6l-.6-.5-.4.2-.4.2h-.2l-.9-.5c-.6.6-1.1-.2-1.6-.1l-1-.3a1.2 1.2 0 0 1-1.2 0h-1.2a.6.6 0 0 1-.5-.6l.3-.2h.6a.7.7 0 0 1 .1.3c0 .2.2.2.5.2h.2l-.4-.6a1.1 1.1 0 0 0-1-.2l-1 .3H53c.3.2.2.3.2.5h-1.6l-.4-.2-.8-.4h-.1l-.7-.2h-2.3l.4-.2.8-.2h.3l1.7-.3 1.1-.2.6-.2h-1.1a8.4 8.4 0 0 0-3.4 0h-1.3L43 3.6c-1.4.1-2.8 0-3.9 1.2-2.5-.4-4.7.7-6.9 1.8l-2.2.9a6.7 6.7 0 0 0-3.7 1.8h.3l.5-.3.8-.5 1.3-.6 1-.2a6 6 0 0 1 2-.9l.9-.3h.2c.1.2.5 0 .7 0h.2c.1 0 .1.1 0 .1l-.6.4 1-.3.8-.2-1.3.7-1.3.4a1 1 0 0 0-.6.5l-.3.5h.3l.4-.2a1.4 1.4 0 0 1 .9-.6l1.5-.5h.5a.1.1 0 0 1 .1.2c-.2.2-.6.3-.8.5h.2l-3.2.9-3.8 1.6a5.2 5.2 0 0 1-2.3 1.2 6.6 6.6 0 0 1-1.7 1.1l-.8.2a1.5 1.5 0 0 1-1.3.9l-.3.5a3.7 3.7 0 0 1-1.2 1.1h-.1v-.1l-.2.2-.2.2-1 .2h-.5l-.4.5c-.1.1-.1.2 0 .2h.1c-.6.6-1 1.4-1.8 1.7L15 19.9c-.6 1.2-1.8 1.6-2.6 2.6s-1.4 3.9-3.9 4.3l-.2-.3-.2.5a2.7 2.7 0 0 1-.4.8 16.9 16.9 0 0 0-1.2 2.1.8.8 0 0 0-.1.5 1.4 1.4 0 0 1-.2.8l-.5 1.1h.2c.3 0 .3.3.4.6l.8-1.1a2.2 2.2 0 0 1 .6-.7 2 2 0 0 0 .9-.9l.3-.3.4-.4.6-1.1h.2c.1.1.1.1.2 0l.2-.4h.5v.8l.5-.5a.5.5 0 0 0 0-.5.4.4 0 0 1 .1-.3 1.5 1.5 0 0 0 .3-.5 1.3 1.3 0 0 1 .8-.9l.3-.2.3-.3a2.4 2.4 0 0 0 .8-1l-.2-.3c0-.1.1-.3.2-.4h.5l.6-.8.6-.3h.2a48.8 48.8 0 0 0-5.5 7.2h-.1.1a48.4 48.4 0 0 0-5.3 11.2h-.5l-.5-.4c-.2-.2-.1-.7-.4-.9h.1c.3-.5-.1-1.2.3-1.7s.1-1.4-.9-1.2-1.5.5-1.3 1.5-1 1.8-1.1 2.9-.5.5-.3.9v3.9c.1.8-.5 1.8.8 2.1l1.3.9c.1.5-.5 1.6.9 1.3a49.2 49.2 0 0 0-.3 5c0 1.1.1 2.2.1 3.3v-.4c-.1-.4-.1-.8-.2-1.3l-.3.3v-.2h-.5c0 .5-.1.8-.4.9a.9.9 0 0 0-.1.5c0 .1.1.3.2.2s.4.2.7.4-.2.3-.4.2-.2.1-.2.3v.3l.5 1.5c0 .3-.1.6-.1.9a1.7 1.7 0 0 0 .2.8h-.3v-.3l-.7-.2v-.6a1.5 1.5 0 0 0 0-.5 14.6 14.6 0 0 1-.3-1.8 16.6 16.6 0 0 1-.2-3.5.9.9 0 0 1 .1-.5v.2a2.9 2.9 0 0 1 .1.5.8.8 0 0 0 .1.4c.1.2.2.4.4.4s.1-.1.1-.2a2.1 2.1 0 0 0-.1-.5 4.2 4.2 0 0 1-.3-1.3 1.5 1.5 0 0 0-.3-.7 1.6 1.6 0 0 1-.2-.9v-.8c0-.3.1-.6.1-.9a.5.5 0 0 0-.1-.4h-.1c-.8.4-.7.2-1 1.6V55c0 .7-.1 1.4 0 2.1a10.8 10.8 0 0 0 .2 2.3 1.8 1.8 0 0 1 0 .5 3.1 3.1 0 0 0 .1.9 5.9 5.9 0 0 1 .1 1.3 3.9 3.9 0 0 0 .2 1.7 1.2 1.2 0 0 1 0 .4 2.1 2.1 0 0 0 .1.8 4.9 4.9 0 0 1 .2.9 14 14 0 0 0 .5 2.2 5 5 0 0 1 .2 1 1.7 1.7 0 0 0 .3.7 2.9 2.9 0 0 1 .5 1.2 8.5 8.5 0 0 0 .3 1l.4 1.4a5.4 5.4 0 0 0 .6 1.5 8.5 8.5 0 0 1 .8 2.1l.2.5a2.1 2.1 0 0 1 .5 1 2.1 2.1 0 0 0 .4.8 1 1 0 0 1 .2.5c.1.3.2.4.4.3h.1v.9l.5 1 .5 1 1.1 1.2.4.4c.3.3.7.5.9 1l.4.3a.7.7 0 0 1 .3.5l.2.7a3.3 3.3 0 0 0 .6.9l.4.2h.3a.2.2 0 0 1 .1.3 2.5 2.5 0 0 0 0 .5.9.9 0 0 0 .4.5h.2c.4-.1.8.2 1.2.7h.1c0-.1.1-.1 0-.2v-.2c0-.1.1-.2.2-.1a.7.7 0 0 1 .3.6v.2a4.3 4.3 0 0 0 .4 1.2c.5.3.5.3.5.1s0-.2.2-.2h.4l.2.3.8.5c.7.8 1.8.7 2.6 1.2l1.7 1.7h.2a2.9 2.9 0 0 0 1.6 1.6 1.3 1.3 0 0 0 1 .6c0 .5.6.6 1.1.7a1.2 1.2 0 0 0 .8.4h.2a1.7 1.7 0 0 0 1.5.5l.9.8 2.4.9v.2c.5 1.1 1.7.7 2.5 1l1.1.4h.4c1.2.3 2.4.9 3.7.5a.7.7 0 0 0 0 .4c1.1.7 2.4 0 3.6.4a2.9 2.9 0 0 0 1.7.1h.1l.8.2h.3l.9.2h.3a.5.5 0 0 1 .5 0 7.9 7.9 0 0 0 1.5.4h.6a.7.7 0 0 1 .7 0h3.9a5 5 0 0 0 1.6-.1h1l.5-.2H60l.6-.2.5-.3h2.2v.6H62l-1.2.2c-.4.1-.7 0-1 .1a2.4 2.4 0 0 1-1 .2l-1.3.3h-.4a3.1 3.1 0 0 0-1.5.1h-1.8a1.1 1.1 0 0 1-.9 0h-4.5a1.3 1.3 0 0 0-1.1.3H47l-.3-.2v-.3h-1.2a4.1 4.1 0 0 0-1.3-.3h-2.5l-.7-.2-.5-.2-2.1-.4h-.5l-.5-.2-2.1-.7-1.4-.4h-2.2c-.1 0-.1.1-.1.2h.2c1.3.5 2.6.9 3.9 1.5h.3l.9.2 1.4.4h1.3l.6.2.7.3 1.7.3 1.1.2 1.1.2h.8l.8.2h3.1l1 .2h2.3l1-.2H56c.4 0 .6-.1.7-.3h1a1 1 0 0 0 .8-.3c-.1.1 0 .1.1.2h.4v-.2c0-.1 0-.1.2-.2s.6-.1.7.1h.4l.3-.2c.2 0 .2 0 .2.1h.7l.5-.2.8-.4c.1.3.4.4 1.3.2l1.3-.4h1.2c.9-.1 2 0 2.7-.7h.2l.4-.3 1.1-.3a6.1 6.1 0 0 0 2-.8l.4-.2h.1l.9-.6.4-.2.5-.2h.4c.4-.1.4-.1.5-.4s0-.1-.2-.1h-.1l.4-.5h.2c.3-.1.5-.2.7-.1h.2a1.3 1.3 0 0 0 .9-.9c.3-.4 1.1-.2 1.3-.8l4.3-3.1c1.1-.1 1.4-1.1 2.2-1.7s2.3-1.1 3-2.2l.9-.4h.1a1 1 0 0 0 1.2-.7v.4c.8-.4 1.8.3 2.6-.5s0-2.7 1-3.8l.7-.5a12.1 12.1 0 0 0 1.5-4.2l.2-.2c0-.3 0-.7.4-.9a.9.9 0 0 0 .2-1.2h-.2a.3.3 0 0 0 0-.3c.7 0 .8-.7 1.2-1V77a.5.5 0 0 1 0-.2 3.8 3.8 0 0 0 .1-.7zM5.9 32.2z"></path><path d="M26.4 9.3l-.3.2-.4.3.5-.2zm6.1-2h.1l.3-.2h-.4zm-2.6 1l-.1.1h.1v-.1zm-1.5 1.4zm1.3-.2zm-6.3 3.1zM9.2 26.2l-.4.4H9a.4.4 0 0 0 .2-.4zm3-3.5a2.1 2.1 0 0 0 .3-.6 1.5 1.5 0 0 0-.5.5c-.1.1-.1.2 0 .2zM11 24.2V24c-.2 0-.5.3-.8.3v.2c.3.3.4.2.8-.3zm3 66.2zM73.9 9.2h.1l-.5-.3zm-2.5-1.4c.5-.1.8.4 1.2.5h.1l-.3-.2-1-.5-1.1-.5.3.2zM52.8 3.1zm11.7 2h-.1l-1.2-.2h.5zm2 .7l1.3.4a3.3 3.3 0 0 0-1.3-.4zm-9 0a1 1 0 0 0 .2-.5h-.5l-.3.3.4.3zm9 1.6zM49.9 4.2zm2.9.7zM48.5 4zm13.8 2.1a.5.5 0 0 0 0 .1zm44.8 52.3h-.3V58h.3c.1 0 .2-.3.1-.4s-.1-.7-.3-.8a.3.3 0 0 1-.2-.3l.2-.4a.4.4 0 0 0 0-.2h-.2l-.2-.3c-.1.3-.2.6-.4.7a.5.5 0 0 0 0 .2c0 .1 0 .2-.1.2h-.1a1.1 1.1 0 0 1-.1.3 2.3 2.3 0 0 0-.4.9.4.4 0 0 0 .1.4h.1a1.7 1.7 0 0 0-.1.8v.4a1.8 1.8 0 0 1-.1.5h-.1l-.4.7v.6a1.5 1.5 0 0 1-.3 1.1h-.2l-.2-.2a.9.9 0 0 1-.1-.8 6.5 6.5 0 0 0 .1-1.7c0-.1-.1-.2-.1-.2a.5.5 0 0 0-.1.3v.6c0 .2-.1.6-.3.7s-.1.2-.1.3l-.2.6.3.5c-.2.2-.4.1-.5-.1v1h.3v.4a4.2 4.2 0 0 0-.3 1.4 3.3 3.3 0 0 0 0 .4 4 4 0 0 1-.2 1.3 2 2 0 0 0 0 .6l-.3.7a3.2 3.2 0 0 1-.3.7l-.3.6-.9 2.7c.3.9-.4 1.5-.8 2.1a2.7 2.7 0 0 1-.8 2.3v.4c0 .1.1.2.3.1l.4-.3.2-.4h.2c.1.1.2.1.4-.1h.2a.5.5 0 0 1 .1.6 2.9 2.9 0 0 0-.1.8c0 .1 0 .2.1.2h.2c.1.1.2 0 .3-.3l.2-.5h.3c.4-.1.4-.1.6-.6l.5-.9.3-.6.4-1a1.6 1.6 0 0 1 .3-1 .6.6 0 0 0 .1-.6c0-.2 0-.3.2-.6l.3-.4.5-1a4.7 4.7 0 0 1 .2-.9 3 3 0 0 0 .3-1.3 3.8 3.8 0 0 1 .3-.9v-.5c-.1-.2-.1-.2 0-.6s.1-.2.2-.2a.4.4 0 0 1 .1.3l.2-.5a2.3 2.3 0 0 0 .2-.9v-.3c0-.1 0-.3-.1-.3v.4c-.2 0-.3.2-.5.3a6.4 6.4 0 0 0 .1-.8l.4-.2a.7.7 0 0 0 .2-.6 1.4 1.4 0 0 1 0-.3 4.8 4.8 0 0 0 .2-1.4v-.2l.3-1h.1a.3.3 0 0 0 .1-.3h-.1a.9.9 0 0 1 .2-.8 1.5 1.5 0 0 0-.9-1zm-1.2 7.8zm-.2-9.9zm0 0zM9.1 30.8a.3.3 0 0 0 0-.2l-.2-.2-.2.2-.3.6c0 .3-.3.6-.3.9v.2h.1zm96.3 24.8h.1a1.7 1.7 0 0 0 .2-1.2.5.5 0 0 1 .2-.5h.1v-.2l-.2-.2h-.1c-.1.1-.2.3-.3.3s-.1.1-.1.3v.3a2.2 2.2 0 0 0 .1 1.2zM13.2 90.1c-.1 0 0 .2 0 .3l.8.8h.1c-.2-.3-.3-.6-.2-.7a.9.9 0 0 1-.5-.2zm.8.3zm92.3-35.7h.1a2 2 0 0 0 0-.6c-.3.1-.3.1-.3.6s.1.1.2 0z"></path><path d="M106.7 62a.6.6 0 0 0 .1-.5c0-.1-.1-.2-.1-.1h-.2v.2c0 .4.1.5.2.4zm.1-8.2h-.1v.6a1 1 0 0 0 .1-.6zM17.1 92.6h-.2v.2l.2.2h.2v-.2zm86.6-33.3c0-.1 0-.1-.1-.1zM9.9 86.5l.5.5-.4-.6z"></path><circle cx="10.5" cy="87.1" transform="rotate(-24.8 10.4 87.159)"></circle><path d="M9.7 30.1h-.1v.2-.2h.1zm83.2-6.6l-.2-.3h-.1zm-14.7 77.1zM5.9 32.2zm-.1.2a.3.3 0 0 0 .1-.2v.2zm1.9-4.9zM61.5 2.4zm42.8 58.2v.1-.1zM16.4 92.5h-.1c.1.1.2 0 .1-.1zm.2.7h.1l-.1-.1v.1zm73.9-71.3zm15.2 34.4zM14.6 91.7zm92.1-37zm-.8 11.4zM34.6 0z"></path></g></g><g id="SvgjsG1906" featurekey="symbolFeature-0" transform="matrix(0.4035874232345672,0,0,0.4035874232345672,97.33183895854322,47.70851839817278)" fill="#3e4149"><g xmlns="http://www.w3.org/2000/svg"><path fill-rule="evenodd" clip-rule="evenodd" fill="#3e4149" d="M231.4,177c-0.4-0.3-0.8-0.6-1.2-0.9c-0.5-0.3-1-0.6-1.6-0.9   c-1.2-0.7-2.6-1.5-4.2-2.1c-3.2-1.5-7.4-2.8-12.4-3.6c-5-0.8-10.8-0.9-17-0.1c-3.1,0.4-6.3,1.2-9.6,2.2c-0.8,0.3-1.6,0.6-2.5,0.9   c-0.8,0.4-1.6,0.8-2.5,1.2c-0.8,0.4-1.6,1-2.4,1.4c-0.8,0.5-1.6,1.2-2.4,1.9c-2.7,2.6-4.7,5.3-6.8,8c-2.1,2.7-4.2,5.4-6.5,7.7   c-1.1,1.1-2.3,2.1-3.2,2.5c-0.1-0.2-0.3-0.5-0.5-0.8c-0.1-0.2-0.3-0.6-0.4-0.9l-0.6-1.2c-0.8-1.9-1.9-3.8-3-5.5   c-2.3-3.5-5.2-6.7-8.6-9.5c-1.8-1.4-3.7-2.7-5.9-3.8c-2.2-1.1-4.7-2-7.8-2.3c-1.6-0.1-3.3-0.1-5.1,0.4c-1.8,0.5-3.6,1.4-5,2.7   c-0.7,0.6-1.3,1.3-1.8,1.9l-0.9,1.1l-1.8,2.2c-2.3,2.9-4.6,5.7-6.9,7.9c-0.3,0.3-0.6,0.6-0.9,0.8c-0.1-0.1-0.1-0.2-0.2-0.3   l-0.4-0.4c-0.5-0.5-1-1-1.5-1.5l-0.8-0.7c-0.3-0.2-0.5-0.4-0.8-0.6l-1.6-1.1c-1.1-0.7-2.3-1.3-3.4-1.9c-4.8-2.1-9.9-2.6-14.1-2.4   c-4.3,0.2-8.2,0.9-11.8,1.8c-7.1,1.7-13.2,3.9-18.7,5.8c-5.5,1.9-10.5,3.4-14.9,4.3c-4.4,1-8.3,1.3-11.6,1.2   c-0.8,0-1.6-0.1-2.3-0.2l41.8-21c2.5,0,4.6-2.1,4.6-4.6l-0.2-0.2L177.7,62.9l-4.6-4.6l9.6-9.7c2-2,2-5.3,0-7.3l-10.9-11   c-2-2-5.3-2-7.3,0l-9.6,9.7l-5.3-5.3l-4.1-4.3l0,0l-4.7-4.9L80.4,86.1l2.1,2.2l10.8-5.6l47.9-48l3.9,4.1L46.9,139.3l-0.4-0.4   c-2.5,0-4.6,2.1-4.6,4.6L19,189.7c0,0.5,0.1,1,0.2,1.4l-0.2,0.3c0,0,0.2,0.2,0.6,0.5c0.6,1.2,1.8,2,3.1,2.3   c1.5,0.9,3.6,2.1,6.3,2.9c3.6,1.2,8.3,2,13.5,1.9c5.2,0,11.1-0.7,17.1-1.8c6-1,12.4-2.5,18.7-3.4c6.3-1,12.6-1.2,16.5,0.5   c0.5,0.3,1,0.4,1.4,0.7c0.4,0.3,1,0.6,1.2,0.9c0.1,0.1,0.3,0.3,0.5,0.4l0.1,0.1c0,0,0.1,0.2,0.2,0.2l0.5,0.5l0.9,1l0.1,0.1l0.1,0.1   c-0.5-0.7-0.1-0.1-0.2-0.2l0.5,0.6l0.5,0.6l0.6,0.6l0.7,0.6c0.3,0.2,0.6,0.4,0.8,0.6c0.5,0.4,1.2,0.7,1.9,1   c1.4,0.6,3.1,0.8,4.5,0.7c2.9-0.2,4.8-1.2,6.2-2c2.8-1.7,4.3-3.4,5.8-5.1c2.9-3.3,5-6.6,7.1-9.8l1.5-2.4l0.8-1.2   c0.1-0.2,0.1-0.2,0.1-0.2c0-0.1,0-0.1,0.1-0.1c0.1-0.1,0.4-0.1,0.8-0.1c0.9,0,2.2,0.3,3.6,0.9c1.3,0.6,2.7,1.4,4.1,2.3   c2.6,1.9,5,4.2,7,6.9c1,1.3,1.8,2.6,2.6,4l0.6,1.2c0.3,0.5,0.5,1,0.9,1.6c0.4,0.5,0.7,1,1.2,1.6c0.4,0.5,1,1.1,1.6,1.6   c0.7,0.5,1.5,1.1,2.6,1.4c0.5,0.2,1,0.3,1.6,0.4c0.6,0.1,1.1,0.1,1.7,0.1c2.2-0.1,3.8-0.9,4.9-1.6c2.3-1.5,3.7-3,5-4.5   c2.5-3,4.5-6,6.4-8.8c1.9-2.8,3.7-5.6,5.5-7.8c1.6-1.8,4.3-3.4,7-4.5c2.7-1.1,5.5-2.1,8.3-2.6c5.5-1.2,10.9-1.5,15.5-1.2   c1.2,0,2.3,0.2,3.4,0.4c1.1,0.2,2.1,0.3,3.1,0.5c1,0.2,1.9,0.4,2.9,0.6c0.9,0.2,1.7,0.5,2.5,0.8c1.6,0.5,3,1.1,4.1,1.6   c0.6,0.3,1.2,0.5,1.7,0.7c0.5,0.3,0.9,0.5,1.3,0.8c1.6,0.9,2.4,1.4,2.4,1.4l0.8-1.1C233.7,178.6,232.9,178,231.4,177z M107.9,189.6   c-0.2,0.1-0.2,0,0.2-0.1C108,189.5,107.9,189.5,107.9,189.6z M158.5,195.4c0,0,0.1,0,0.1,0C158.4,195.5,158.3,195.4,158.5,195.4z"></path></g></g><g id="SvgjsG1907" featurekey="nameFeature-0" transform="matrix(2.009474604075,0,0,2.009474604075,50.74954797284867,130.5482928848483)" fill="#3e4149"><path d="M18.72 34.8 c0 0.29332 0.04004 0.49332 0.12004 0.6 s0.17332 0.2 0.28 0.28 c0.21332 0.16 0.42664 0.38668 0.63996 0.68 s0.32 0.66664 0.32 1.12 l0 2.52 l-8.2 0 l0 -2.52 c0 -0.45332 0.10668 -0.82664 0.32 -1.12 s0.42664 -0.52 0.63996 -0.68 c0.13332 -0.08 0.23332 -0.17332 0.3 -0.28 s0.1 -0.30668 0.1 -0.6 l0 -7.48 c0 -0.37332 -0.2 -0.56 -0.6 -0.56 l-4.08 0 c-0.37332 0 -0.56 0.18668 -0.56 0.56 l0 7.48 c0 0.29332 0.03332 0.49332 0.1 0.6 s0.16668 0.2 0.3 0.28 c0.21332 0.16 0.42664 0.38668 0.63996 0.68 s0.32 0.66664 0.32 1.12 l0 2.52 l-8.24 0 l0 -2.52 c0 -0.45332 0.10668 -0.82664 0.32 -1.12 s0.42664 -0.52 0.63996 -0.68 c0.13332 -0.08 0.23332 -0.17332 0.3 -0.28 s0.1 -0.30668 0.1 -0.6 l0.04 0 l0 -1.04 l0 -18.48 l-0.04 0 c0 -0.26668 -0.03332 -0.45336 -0.1 -0.56004 s-0.16668 -0.21336 -0.3 -0.32004 c-0.21332 -0.16 -0.42664 -0.38668 -0.63996 -0.68 s-0.32 -0.66664 -0.32 -1.12 l0 -2.52 l8.24 0 l0 2.52 c0 0.45332 -0.10668 0.82664 -0.32 1.12 s-0.42664 0.52 -0.63996 0.68 c-0.13332 0.10668 -0.23332 0.21336 -0.3 0.32004 s-0.1 0.29336 -0.1 0.56004 l0 6.2 c0 0.21332 0.06668 0.36 0.2 0.44 s0.26664 0.12 0.39996 0.12 l4.08 0 c0.37332 0 0.56 -0.18668 0.56 -0.56 l0 -6.2 c0 -0.26668 -0.03332 -0.45336 -0.1 -0.56004 s-0.16668 -0.21336 -0.3 -0.32004 c-0.21332 -0.16 -0.42664 -0.38668 -0.63996 -0.68 s-0.32 -0.66664 -0.32 -1.12 l0 -2.52 l8.2 0 l0 2.52 c0 0.45332 -0.10668 0.82664 -0.32 1.12 s-0.42664 0.52 -0.63996 0.68 c-0.10668 0.10668 -0.2 0.21336 -0.28 0.32004 s-0.12 0.29336 -0.12 0.56004 l0 19.52 z M30.368000000000002 14.719999999999999 c-0.13332 0 -0.25996 0.060116 -0.37996 0.18012 s-0.18 0.24668 -0.18 0.38 l0 6.64 c0 0.18668 0.06 0.32668 0.18 0.42 s0.26 0.14 0.42 0.14 l5.04 0 c0.13332 0 0.27332 0.04668 0.42 0.14 s0.22 0.24664 0.22 0.45996 l0 3.2 c0 0.37332 -0.2 0.56 -0.6 0.56 l-5.08 0 c-0.4 0 -0.6 0.17332 -0.6 0.52 l0 7.48 c0 0.16 0.06668 0.29332 0.2 0.4 s0.28 0.16 0.44 0.16 l3.2 0 c0.24 0 0.42668 -0.13332 0.56 -0.4 c0.05332 -0.13332 0.12 -0.29332 0.2 -0.48 s0.19332 -0.36 0.34 -0.52 s0.32668 -0.3 0.54 -0.42 s0.46664 -0.18 0.75996 -0.18 l2.48 0 l0 5.6 c0 0.29332 -0.14668 0.53332 -0.44 0.72 s-0.58664 0.28 -0.87996 0.28 l-2.6 0 l-9.16 0 l-2.4 0 l0 -2.4 c0 -0.58668 0.08 -1.0334 0.24 -1.34 s0.37332 -0.52668 0.64 -0.66 c0.32 -0.18668 0.48 -0.46668 0.48 -0.84 l0 -19.44 c0 -0.42668 -0.17332 -0.73336 -0.52 -0.92004 c-0.26668 -0.13332 -0.47336 -0.34 -0.62004 -0.62 s-0.22 -0.68668 -0.22 -1.22 l0 -2.52 l14.32 0 c0.32 0 0.59332 0.12 0.82 0.36 s0.34 0.46668 0.34 0.68 l0 5.28 l-2.36 0 c-0.53332 0 -0.96 -0.13332 -1.28 -0.4 s-0.54668 -0.52 -0.68 -0.76 c-0.18668 -0.32 -0.46668 -0.48 -0.84 -0.48 l-3 0 l0 0 z M57.376000000000005 33.28 l-0.00015625 5.16 c0 0.53332 -0.14668 0.92664 -0.44 1.18 s-0.54664 0.38 -0.75996 0.38 l-0.56 0 l-14.04 0 l0 -2.56 c0 -0.58668 0.07332 -1.0334 0.22 -1.34 s0.35336 -0.52668 0.62004 -0.66 c0.13332 -0.05332 0.25332 -0.14664 0.36 -0.27996 s0.16 -0.29332 0.16 -0.48 l0 -19.16 l0 -0.24 c0 -0.26668 -0.03332 -0.45336 -0.1 -0.56004 s-0.16668 -0.21336 -0.3 -0.32004 c-0.21332 -0.16 -0.42664 -0.38668 -0.63996 -0.68 s-0.32 -0.66664 -0.32 -1.12 l0 -2.52 l8.24 0 l0 2.52 c0 0.45332 -0.10668 0.82664 -0.32 1.12 s-0.42664 0.52 -0.63996 0.68 c-0.13332 0.10668 -0.23332 0.21336 -0.3 0.32004 s-0.1 0.29336 -0.1 0.56004 l0 19.44 c0 0.45332 0.17332 0.68 0.52 0.68 l2.96 0 c0.18668 0 0.36668 -0.06668 0.54 -0.2 s0.3 -0.26664 0.38 -0.39996 c0.13332 -0.26668 0.36 -0.58668 0.68 -0.96 s0.77332 -0.56 1.36 -0.56 l2.48 0 z M76.144 33.28 l-0.00015625 5.16 c0 0.53332 -0.14668 0.92664 -0.44 1.18 s-0.54664 0.38 -0.75996 0.38 l-0.56 0 l-14.04 0 l0 -2.56 c0 -0.58668 0.07332 -1.0334 0.22 -1.34 s0.35336 -0.52668 0.62004 -0.66 c0.13332 -0.05332 0.25332 -0.14664 0.36 -0.27996 s0.16 -0.29332 0.16 -0.48 l0 -19.16 l0 -0.24 c0 -0.26668 -0.03332 -0.45336 -0.1 -0.56004 s-0.16668 -0.21336 -0.3 -0.32004 c-0.21332 -0.16 -0.42664 -0.38668 -0.63996 -0.68 s-0.32 -0.66664 -0.32 -1.12 l0 -2.52 l8.24 0 l0 2.52 c0 0.45332 -0.10668 0.82664 -0.32 1.12 s-0.42664 0.52 -0.63996 0.68 c-0.13332 0.10668 -0.23332 0.21336 -0.3 0.32004 s-0.1 0.29336 -0.1 0.56004 l0 19.44 c0 0.45332 0.17332 0.68 0.52 0.68 l2.96 0 c0.18668 0 0.36668 -0.06668 0.54 -0.2 s0.3 -0.26664 0.38 -0.39996 c0.13332 -0.26668 0.36 -0.58668 0.68 -0.96 s0.77332 -0.56 1.36 -0.56 l2.48 0 z M87.75200000000001 40.28 c-2.48 0 -4.44 -0.55332 -5.88 -1.66 s-2.16 -2.6867 -2.16 -4.74 l0 -17.76 c0 -2.0533 0.71332 -3.64 2.14 -4.76 s3.3934 -1.68 5.9 -1.68 c2.5333 0 4.4868 0.56 5.86 1.68 s2.06 2.7067 2.06 4.76 l0 17.76 c0 2.0533 -0.69332 3.6333 -2.08 4.74 s-3.3334 1.66 -5.84 1.66 z M90.11200000000001 16.6 c0 -0.48 -0.09328 -0.86672 -0.27996 -1.16 s-0.40668 -0.52 -0.66 -0.68 s-0.51332 -0.27332 -0.78 -0.34 s-0.48 -0.1 -0.64 -0.1 s-0.37332 0.02668 -0.64 0.08 s-0.53336 0.15332 -0.80004 0.3 s-0.5 0.35336 -0.7 0.62004 s-0.3 0.62668 -0.3 1.08 l0 17.12 c0 0.4 0.08 0.73332 0.24 1 s0.36 0.48 0.6 0.64 s0.50668 0.28 0.8 0.36 s0.56 0.12 0.8 0.12 c0.56 0 1.0933 -0.16 1.6 -0.48 s0.76 -0.88 0.76 -1.68 l0 -16.88 z"></path></g><g id="SvgjsG1908" featurekey="sloganFeature-0" transform="matrix(1.1391684466656486,0,0,1.1391684466656486,86.86083155333435,212.75242070687568)" fill="#3e4149"><path d="M1.26 20 c-0.14 0 -0.26 -0.12 -0.26 -0.26 l0 -11.98 c0 -0.14 0.12 -0.26 0.26 -0.26 l2.6 0 c0.14 0 0.26 0.12 0.26 0.26 l0 11.98 c0 0.14 -0.12 0.26 -0.26 0.26 l-2.6 0 z M11.78 20 c-0.08 0 -0.16 -0.04 -0.2 -0.12 c-0.06 -0.06 -0.06 -0.16 -0.04 -0.24 l4.66 -11.98 c0.04 -0.1 0.14 -0.16 0.24 -0.16 l2.68 0 c0.1 0 0.2 0.06 0.24 0.16 l4.58 11.98 c0.02 0.08 0.02 0.16 -0.04 0.24 c-0.04 0.08 -0.12 0.12 -0.2 0.12 l-2.78 0 c-0.1 0 -0.2 -0.06 -0.24 -0.16 l-0.74 -1.84 l-4.5 0.02 l-0.74 1.82 c-0.04 0.1 -0.14 0.16 -0.24 0.16 l-2.68 0 z M16.259999999999998 15.5 l2.88 0 l-1.44 -4.24 z M26.02 20 c-0.14 0 -0.26 -0.12 -0.26 -0.26 l0 -11.98 c0 -0.14 0.12 -0.26 0.26 -0.26 l2.88 0 c0.1 0 0.2 0.06 0.24 0.14 l3 7.4 l2.98 -7.4 c0.04 -0.08 0.14 -0.14 0.24 -0.14 l2.88 0 c0.14 0 0.26 0.12 0.26 0.26 l0 11.98 c0 0.14 -0.12 0.26 -0.26 0.26 l-2.34 0 c-0.14 0 -0.26 -0.12 -0.26 -0.26 l0 -6.44 l-2.44 6.2 c-0.04 0.08 -0.14 0.14 -0.22 0.14 l-1.68 0 c-0.1 0 -0.2 -0.06 -0.24 -0.14 l-2.46 -6.2 l0 6.44 c0 0.14 -0.12 0.26 -0.26 0.26 l-2.32 0 z M51.239999999999995 20.12 c-0.96 0 -1.92 -0.18 -2.84 -0.54 c-0.92 -0.34 -1.74 -0.84 -2.42 -1.44 c-0.08 -0.08 -0.1 -0.2 -0.06 -0.3 l0.7 -2.38 c0.04 -0.08 0.1 -0.14 0.18 -0.14 c0.08 -0.02 0.16 0 0.22 0.06 c1.06 1 2.26 1.9 3.76 1.98 c0.4 0.02 0.84 0.04 1.22 -0.08 c1.18 -0.38 0.68 -1.58 -0.2 -1.94 c-0.3 -0.12 -0.72 -0.26 -1.26 -0.42 c-0.8 -0.22 -1.46 -0.46 -1.96 -0.7 c-0.54 -0.24 -1 -0.62 -1.4 -1.12 c-0.38 -0.52 -0.58 -1.2 -0.58 -2.02 c0 -0.78 0.2 -1.46 0.6 -2.04 s0.96 -1.04 1.66 -1.34 s1.52 -0.46 2.44 -0.46 c0.82 0 1.62 0.12 2.42 0.38 c0.78 0.24 1.48 0.58 2.1 0.98 c0.1 0.08 0.14 0.2 0.08 0.32 l-0.66 2.24 c-0.02 0.08 -0.08 0.12 -0.16 0.14 c-0.06 0.02 -0.14 0.02 -0.2 -0.02 c-0.9 -0.56 -1.8 -1.24 -2.86 -1.38 c-0.7 -0.1 -1.76 -0.06 -2 0.78 c-0.3 1.08 1.28 1.36 2 1.58 c0.8 0.24 1.46 0.48 1.98 0.72 c0.54 0.26 1.02 0.66 1.4 1.16 c0.4 0.52 0.6 1.22 0.6 2.06 c0 0.82 -0.22 1.52 -0.64 2.12 c-0.4 0.6 -0.98 1.04 -1.7 1.36 c-0.72 0.28 -1.52 0.44 -2.42 0.44 z M63.22 20 c-1.08 0 -1.86 -0.22 -2.68 -0.66 c-0.8 -0.44 -1.44 -1.06 -1.88 -1.88 c-0.44 -0.8 -0.66 -1.76 -0.66 -2.86 l0 -7.04 c0 -0.14 0.12 -0.24 0.26 -0.24 l2.6 0 c0.14 0 0.24 0.1 0.24 0.24 l0 7.04 c0 0.8 0.22 1.42 0.64 1.86 s0.8 0.66 1.5 0.66 s1.06 -0.22 1.46 -0.64 c0.4 -0.44 0.6 -1.08 0.6 -1.88 l0 -7.04 c0 -0.14 0.12 -0.24 0.26 -0.24 l2.6 0 c0.14 0 0.26 0.1 0.26 0.24 l0 7.04 c0 1.1 -0.22 2.06 -0.66 2.86 c-0.42 0.82 -1.06 1.44 -1.86 1.88 s-1.6 0.66 -2.68 0.66 z M73.24 20 c-1.56 0 -2.9 -0.66 -3.96 -1.96 c-0.08 -0.08 -0.08 -0.2 -0.02 -0.3 l1.2 -1.92 c0.04 -0.06 0.12 -0.12 0.2 -0.12 s0.16 0.02 0.2 0.08 c0.38 0.42 0.78 0.74 1.18 0.94 c0.38 0.22 0.74 0.32 1.06 0.32 c0.38 0 0.64 -0.1 0.84 -0.32 c0.2 -0.24 0.3 -0.56 0.3 -1 l0 -1.3 c-0.02 0 -0.02 0 -0.02 0.02 l0 -6.8 c0 -0.14 0.12 -0.26 0.26 -0.26 l2.62 0 c0.14 0 0.26 0.12 0.26 0.26 l0 8.14 c0 1.32 -0.38 2.36 -1.1 3.1 c-0.74 0.74 -1.74 1.12 -3.02 1.12 z M79.62 20 c-0.14 0 -0.26 -0.12 -0.26 -0.26 l0 -11.98 c0 -0.14 0.12 -0.26 0.26 -0.26 l2.6 0 c0.14 0 0.26 0.12 0.26 0.26 l0 11.98 c0 0.14 -0.12 0.26 -0.26 0.26 l-2.6 0 z M87.72 20 c-0.14 0 -0.24 -0.12 -0.24 -0.26 l0 -9.44 l-2.74 0 c-0.14 0 -0.26 -0.1 -0.26 -0.24 l0 -2.3 c0 -0.14 0.12 -0.26 0.26 -0.26 l8.58 0 c0.16 0 0.26 0.12 0.26 0.26 l0 2.3 c0 0.14 -0.1 0.24 -0.26 0.24 l-2.74 0 l0 9.44 c0 0.14 -0.12 0.26 -0.26 0.26 l-2.6 0 z M95.84 20 c-0.14 0 -0.26 -0.12 -0.26 -0.26 l0 -11.98 c0 -0.14 0.12 -0.26 0.26 -0.26 l2.6 0 c0.14 0 0.26 0.12 0.26 0.26 l0 4.92 l4.52 0 l0 -4.92 c0 -0.14 0.12 -0.26 0.26 -0.26 l2.6 0 c0.14 0 0.26 0.12 0.26 0.26 l0 11.98 c0 0.14 -0.12 0.26 -0.26 0.26 l-2.6 0 c-0.14 0 -0.26 -0.12 -0.26 -0.26 l0 -4.3 l-4.52 0 l0 4.3 c0 0.14 -0.12 0.26 -0.26 0.26 l-2.6 0 z"></path></g></svg>  
